<?xml version="1.0" encoding="UTF-8" standalone="no"?>
<!DOCTYPE svg PUBLIC "-//W3C//DTD SVG 1.1//EN"
 "http://www.w3.org/Graphics/SVG/1.1/DTD/svg11.dtd">
<!-- Generated by graphviz version 2.38.0 (20140413.2041)
 -->
<!-- Title: ER Pages: 1 -->
<svg width="154pt" height="148pt"
 viewBox="0.00 0.00 154.00 148.00" xmlns="http://www.w3.org/2000/svg" xmlns:xlink="http://www.w3.org/1999/xlink">
<g id="graph0" class="graph" transform="scale(1 1) rotate(0) translate(4 144)">
<title>ER</title>
<polygon fill="white" stroke="none" points="-4,4 -4,-144 150,-144 150,4 -4,4"/>
<!-- N_0 -->
<g id="node1" class="node"><title>N_0</title>
<polygon fill="none" stroke="black" points="8.5,-115 8.5,-136 61.5,-136 61.5,-115 8.5,-115"/>
<text text-anchor="start" x="11.5" y="-122.8" font-family="Times New Roman,serif" font-weight="bold" font-size="14.00">authors</text>
<polygon fill="none" stroke="black" points="8.5,-94 8.5,-115 34.5,-115 34.5,-94 8.5,-94"/>
<text text-anchor="start" x="16" y="-100.8" font-family="Times New Roman,serif" font-size="14.00">id</text>
<polygon fill="none" stroke="black" points="34.5,-94 34.5,-115 61.5,-115 61.5,-94 34.5,-94"/>
<text text-anchor="start" x="42.5" y="-100.8" font-family="Times New Roman,serif" font-size="14.00">id</text>
</g>
<!-- N_2 -->
<g id="node3" class="node"><title>N_2</title>
<polygon fill="none" stroke="black" points="75.5,-54 17.5,-27 75.5,-7.10543e-015 133.5,-27 75.5,-54"/>
<text text-anchor="start" x="56.5" y="-23.8" font-family="Times New Roman,serif" font-weight="bold" font-size="14.00">writes</text>
</g>
<!-- N_0&#45;&gt;N_2 -->
<g id="edge1" class="edge"><title>N_0&#45;&gt;N_2</title>
<path fill="none" stroke="black" d="M46.1393,-89.5859C52.1526,-76.9725 59.4255,-61.7171 65.2284,-49.5454"/>
<text text-anchor="middle" x="42.6393" y="-78.3859" font-family="Times New Roman,serif" font-size="14.00">1</text>
</g>
<!-- N_1 -->
<g id="node2" class="node"><title>N_1</title>
<polygon fill="none" stroke="black" points="95.5,-115 95.5,-136 138.5,-136 138.5,-115 95.5,-115"/>
<text text-anchor="start" x="98.5" y="-122.8" font-family="Times New Roman,serif" font-weight="bold" font-size="14.00">books</text>
<polygon fill="none" stroke="black" points="95.5,-94 95.5,-115 116.5,-115 116.5,-94 95.5,-94"/>
<text text-anchor="start" x="100.5" y="-100.8" font-family="Times New Roman,serif" font-size="14.00">id</text>
<polygon fill="none" stroke="black" points="116.5,-94 116.5,-115 138.5,-115 138.5,-94 116.5,-94"/>
<text text-anchor="start" x="122" y="-100.8" font-family="Times New Roman,serif" font-size="14.00">id</text>
</g>
<!-- N_1&#45;&gt;N_2 -->
<g id="edge2" class="edge"><title>N_1&#45;&gt;N_2</title>
<path fill="none" stroke="black" d="M104.861,-89.5859C98.8474,-76.9725 91.5745,-61.7171 85.7716,-49.5454"/>
<text text-anchor="middle" x="93.8607" y="-78.3859" font-family="Times New Roman,serif" font-size="14.00">0..n</text>
</g>
</g>
</svg>
