<?xml version="1.0" encoding="UTF-8" standalone="no"?>
<!DOCTYPE svg PUBLIC "-//W3C//DTD SVG 1.1//EN"
 "http://www.w3.org/Graphics/SVG/1.1/DTD/svg11.dtd">
<!-- Generated by graphviz version 2.38.0 (20140413.2041)
 -->
<!-- Title: ER Pages: 1 -->
<svg width="174pt" height="182pt"
 viewBox="0.00 0.00 174.00 182.00" xmlns="http://www.w3.org/2000/svg" xmlns:xlink="http://www.w3.org/1999/xlink">
<g id="graph0" class="graph" transform="scale(1 1) rotate(0) translate(4 178)">
<title>ER</title>
<polygon fill="white" stroke="none" points="-4,4 -4,-178 170,-178 170,4 -4,4"/>
<!-- N_0 -->
<g id="node1" class="node"><title>N_0</title>
<polygon fill="none" stroke="black" points="10.5,-143 10.5,-168 69.5,-168 69.5,-143 10.5,-143"/>
<text text-anchor="start" x="16.5" y="-152.8" font-family="Times New Roman,serif" font-weight="bold" font-size="14.00">authors</text>
<polygon fill="none" stroke="black" points="10.5,-116 10.5,-141 38.5,-141 38.5,-116 10.5,-116"/>
<text text-anchor="start" x="19" y="-124.8" font-family="Times New Roman,serif" font-size="14.00">id</text>
<polygon fill="none" stroke="black" points="40.5,-116 40.5,-141 69.5,-141 69.5,-116 40.5,-116"/>
<text text-anchor="start" x="49.5" y="-124.8" font-family="Times New Roman,serif" font-size="14.00">id</text>
</g>
<!-- N_2 -->
<g id="node3" class="node"><title>N_2</title>
<polygon fill="none" stroke="black" points="85.5,-74 17.5,-37 85.5,-7.10543e-015 153.5,-37 85.5,-74"/>
<polygon fill="none" stroke="black" points="61.5,-24 61.5,-49 109.5,-49 109.5,-24 61.5,-24"/>
<text text-anchor="start" x="66.5" y="-33.8" font-family="Times New Roman,serif" font-weight="bold" font-size="14.00">writes</text>
</g>
<!-- N_0&#45;&gt;N_2 -->
<g id="edge1" class="edge"><title>N_0&#45;&gt;N_2</title>
<path fill="none" stroke="black" d="M53.4263,-109.817C59.5083,-96.1988 66.5984,-80.3231 72.5635,-66.9664"/>
<text text-anchor="middle" x="49.9263" y="-98.6171" font-family="Times New Roman,serif" font-size="14.00">1</text>
</g>
<!-- N_1 -->
<g id="node2" class="node"><title>N_1</title>
<polygon fill="none" stroke="black" points="107.5,-143 107.5,-168 156.5,-168 156.5,-143 107.5,-143"/>
<text text-anchor="start" x="113.5" y="-152.8" font-family="Times New Roman,serif" font-weight="bold" font-size="14.00">books</text>
<polygon fill="none" stroke="black" points="107.5,-116 107.5,-141 130.5,-141 130.5,-116 107.5,-116"/>
<text text-anchor="start" x="113.5" y="-124.8" font-family="Times New Roman,serif" font-size="14.00">id</text>
<polygon fill="none" stroke="black" points="132.5,-116 132.5,-141 156.5,-141 156.5,-116 132.5,-116"/>
<text text-anchor="start" x="139" y="-124.8" font-family="Times New Roman,serif" font-size="14.00">id</text>
</g>
<!-- N_1&#45;&gt;N_2 -->
<g id="edge2" class="edge"><title>N_1&#45;&gt;N_2</title>
<path fill="none" stroke="black" d="M117.574,-109.817C111.492,-96.1988 104.402,-80.3231 98.4365,-66.9664"/>
<text text-anchor="middle" x="106.574" y="-98.6171" font-family="Times New Roman,serif" font-size="14.00">0..n</text>
</g>
</g>
</svg>
